<svg width="384" height="512" viewBox="0 0 384 512" fill="none" xmlns="http://www.w3.org/2000/svg">
<path d="M64 16C37.5 16 16 37.5 16 64V448C16 474.5 37.5 496 64 496H320C346.5 496 368 474.5 368 448V64C368 37.5 346.5 16 320 16H64ZM0 64C0 28.7 28.7 0 64 0H320C355.3 0 384 28.7 384 64V448C384 483.3 355.3 512 320 512H64C28.7 512 0 483.3 0 448V64ZM203.3 148.7L299.3 244.7C305.5 250.9 305.5 261.1 299.3 267.3L203.3 363.3C197.1 369.5 186.9 369.5 180.7 363.3L84.7 267.3C78.5 261.1 78.5 250.9 84.7 244.7L180.7 148.7C186.9 142.5 197.1 142.5 203.3 148.7ZM96 256L107.3 267.3L180.7 340.7L192 352L203.3 340.7L276.7 267.3L288 256L276.7 244.7L203.3 171.3L192 160L180.7 171.3L107.3 244.7L96 256Z" fill="black"/>
</svg>
