<svg width="384" height="512" viewBox="0 0 384 512" fill="none" xmlns="http://www.w3.org/2000/svg">
<path d="M64 16C37.5 16 16 37.5 16 64V448C16 474.5 37.5 496 64 496H320C346.5 496 368 474.5 368 448V64C368 37.5 346.5 16 320 16H64ZM0 64C0 28.7 28.7 0 64 0H320C355.3 0 384 28.7 384 64V448C384 483.3 355.3 512 320 512H64C28.7 512 0 483.3 0 448V64ZM96 217.9V218.5C96 229.1 100 239.4 107.2 247.3L186.1 333.4C187.6 335.1 189.8 336 192 336C194.2 336 196.4 335.1 197.9 333.4L276.8 247.3C284 239.5 288 229.2 288 218.5V217.9C288 194.7 269.2 176 246.1 176C235 176 224.3 180.4 216.4 188.3L197.7 207C196.2 208.5 194.2 209.3 192 209.3C189.8 209.3 187.8 208.5 186.3 207L167.6 188.3C159.7 180.4 149.1 176 137.9 176C114.8 176 96 194.8 96 217.9ZM137.9 160C153.3 160 168 166.1 178.9 177L192 190.1L205.1 177C216 166.1 230.7 160 246.1 160C278.1 160 304 185.9 304 217.9V218.5C304 233.2 298.5 247.3 288.6 258.1L209.7 344.2C205.2 349.2 198.7 352 192 352C185.3 352 178.9 349.2 174.3 344.2L95.4 258.1C85.5 247.3 80 233.2 80 218.6V218C80 186 105.9 160.1 137.9 160.1V160Z" fill="black"/>
</svg>
