<svg width="384" height="512" viewBox="0 0 384 512" fill="none" xmlns="http://www.w3.org/2000/svg">
<path d="M320 16C346.5 16 368 37.5 368 64V448C368 474.5 346.5 496 320 496H64C37.5 496 16 474.5 16 448V64C16 37.5 37.5 16 64 16H320ZM64 0C28.7 0 0 28.7 0 64V448C0 483.3 28.7 512 64 512H320C355.3 512 384 483.3 384 448V64C384 28.7 355.3 0 320 0H64ZM200 326.6C210.2 332.6 222.1 336 234.9 336C273.1 336 304 305.1 304 266.9C304 237.9 286.2 213.1 260.9 202.9C261.1 201 261.1 199.1 261.1 197.1C261.1 158.9 230.2 128 192 128C153.8 128 122.9 158.9 122.9 197.1C122.9 199 123 201 123.1 202.9C97.8 213.1 80 237.9 80 266.9C80 305.1 110.9 336 149.1 336C161.8 336 173.8 332.6 184 326.5V368H160C155.6 368 152 371.6 152 376C152 380.4 155.6 384 160 384H224C228.4 384 232 380.4 232 376C232 371.6 228.4 368 224 368H200V326.6ZM138.9 197.1C138.9 167.8 162.7 144 192 144C221.3 144 245.1 167.8 245.1 197.1C245.1 200.4 244.8 203.7 244.2 206.8C243.5 210.8 245.9 214.8 249.8 215.9C271.9 222.4 287.9 242.7 287.9 266.9C287.9 296.2 264.1 320 234.8 320C220.3 320 207.1 314.2 197.5 304.7C194.4 301.6 189.4 301.6 186.3 304.7C176.7 314.2 163.6 320 149 320C119.8 320 96 296.2 96 266.9C96 242.8 112.1 222.4 134.1 215.9C138 214.7 140.5 210.8 139.7 206.8C139.1 203.7 138.8 200.4 138.8 197.1H138.9Z" fill="black"/>
</svg>
