<svg width="384" height="512" viewBox="0 0 384 512" fill="none" xmlns="http://www.w3.org/2000/svg">
<path d="M64 16C37.5 16 16 37.5 16 64V448C16 474.5 37.5 496 64 496H320C346.5 496 368 474.5 368 448V64C368 37.5 346.5 16 320 16H64ZM0 64C0 28.7 28.7 0 64 0H320C355.3 0 384 28.7 384 64V448C384 483.3 355.3 512 320 512H64C28.7 512 0 483.3 0 448V64ZM186.3 126.5C189.4 123.4 194.5 123.4 197.6 126.5L237.2 166.1L297 225.9C322 250.9 322 291.4 297 316.4C272 341.4 231.5 341.4 206.5 316.4L200 309.9V366H224C228.4 366 232 369.6 232 374C232 378.4 228.4 382 224 382H160C155.6 382 152 378.4 152 374C152 369.6 155.6 366 160 366H184V309.9L177.5 316.4C152.5 341.4 112 341.4 87 316.4C62 291.4 62 250.9 87 225.9L146.7 166.2L186.3 126.6V126.5ZM192 301.9L191.9 302H192.1L192 301.9ZM192 143.5L158.1 177.4L98.3 237.2C79.6 255.9 79.6 286.3 98.3 305.1C117 323.9 147.4 323.8 166.2 305.1L186.3 285C189.4 281.9 194.5 281.9 197.6 285L217.7 305.1C236.4 323.8 266.8 323.8 285.6 305.1C304.4 286.4 304.3 256 285.6 237.2L225.9 177.5L192 143.5Z" fill="black"/>
</svg>
